<svg width="1782" height="1100" viewBox="0 0 1782 1100" fill="none" xmlns="http://www.w3.org/2000/svg">
<g clip-path="url(#clip0_73_1421)">
<path d="M84.4556 414.58C103.206 406.562 132.906 397.606 175.531 398.632C244.536 400.293 286.206 426.657 360.987 440.049C457.108 457.26 449.938 424.736 541.272 434.588C680.054 449.553 740.765 529.428 850.556 530.901C924.893 531.899 905.008 495.386 996.295 489.076C1096.88 482.129 1138.32 525.268 1234.42 518.213C1317.73 512.093 1313.29 477.713 1403.95 473.214C1461.78 470.352 1517.92 481.645 1554.9 491.078" stroke="#364CA0" stroke-miterlimit="10"/>
<path d="M1004.23 681.31C1034.11 660.94 1077.91 638.685 1136.34 633.589C1226.29 625.746 1292.27 663.674 1323.61 648.505C1360.51 630.63 1288.94 568.417 1323.61 551.59C1362.81 532.56 1476.68 601.222 1542.52 579.923C1586.37 565.736 1602 513.888 1560.99 480.022C1514.7 441.816 1409.24 437.158 1389.57 453.188C1372.71 466.91 1405.43 506.709 1455.5 512.827C1490.55 517.113 1521.63 503.378 1526.72 501.069C1594.02 470.374 1549.4 413.775 1600.57 393.55C1650.29 373.897 1716.36 417.875 1772 401.008C1851.9 376.79 1780.66 266.431 1861.66 239.97C1883 233.003 1900.93 236.413 2043.65 260.844C2231.77 293.052 2268.93 298.851 2307.4 289.177C2336.63 281.825 2377.89 262.729 2401.58 204.192" stroke="#364CA0" stroke-miterlimit="10"/>
<path d="M-97.457 835.26C-67.5754 814.89 -23.7739 792.635 34.6514 787.539C124.602 779.696 190.585 817.624 221.922 802.456C258.823 784.58 187.252 722.367 221.922 705.54C261.123 686.51 374.993 755.172 440.836 733.873C484.684 719.687 500.317 667.839 459.309 633.972C413.02 595.766 307.553 591.108 287.883 607.139C271.029 620.861 303.751 660.659 353.82 666.777C388.865 671.063 419.944 657.328 425.038 655.019C492.336 624.324 447.713 567.725 498.885 547.501C548.602 527.847 614.68 571.826 670.312 554.959C750.215 530.74 678.974 420.382 759.98 393.92C781.318 386.953 799.251 390.363 941.97 414.795C1130.09 447.002 1167.24 452.802 1205.72 443.127C1234.94 435.775 1276.21 416.679 1299.89 358.142" fill="#123FA2"/>
<path d="M-97.457 835.26C-67.5754 814.89 -23.7739 792.635 34.6514 787.539C124.602 779.696 190.585 817.624 221.922 802.456C258.823 784.58 187.252 722.367 221.922 705.54C261.123 686.51 374.993 755.172 440.836 733.873C484.684 719.687 500.317 667.839 459.309 633.972C413.02 595.766 307.553 591.108 287.883 607.139C271.029 620.861 303.751 660.659 353.82 666.777C388.865 671.063 419.944 657.328 425.038 655.019C492.336 624.324 447.713 567.725 498.885 547.501C548.602 527.847 614.68 571.826 670.312 554.959C750.215 530.74 678.974 420.382 759.98 393.92C781.318 386.953 799.251 390.363 941.97 414.795C1130.09 447.002 1167.24 452.802 1205.72 443.127C1234.94 435.775 1276.21 416.679 1299.89 358.142" stroke="#364CA0" stroke-miterlimit="10"/>
<path d="M457.484 746.364C487.366 725.993 531.167 703.739 589.593 698.643C679.543 690.8 745.527 728.727 776.864 713.559C813.764 695.683 742.194 633.471 776.864 616.644C816.064 597.614 929.934 666.276 995.777 644.976C1039.63 630.79 1055.26 578.942 1014.25 545.075C967.961 506.869 862.495 502.211 842.824 518.242C825.97 531.964 858.692 571.763 908.761 577.88C943.807 582.167 974.886 568.432 979.979 566.123C1047.28 535.428 1002.65 478.829 1053.83 458.604C1103.54 438.95 1169.62 482.929 1225.25 466.062C1305.16 441.843 1233.91 331.485 1314.92 305.023C1336.26 298.056 1354.19 301.467 1496.91 325.898C1685.03 358.106 1722.19 363.905 1760.66 354.231C1789.88 346.879 1831.15 327.782 1854.83 269.246" fill="#123FA2"/>
<path d="M457.484 746.364C487.366 725.993 531.167 703.739 589.593 698.643C679.543 690.8 745.527 728.727 776.864 713.559C813.764 695.683 742.194 633.471 776.864 616.644C816.064 597.614 929.934 666.276 995.777 644.976C1039.63 630.79 1055.26 578.942 1014.25 545.075C967.961 506.869 862.495 502.211 842.824 518.242C825.97 531.964 858.692 571.763 908.761 577.88C943.807 582.167 974.886 568.432 979.979 566.123C1047.28 535.428 1002.65 478.829 1053.83 458.604C1103.54 438.95 1169.62 482.929 1225.25 466.062C1305.16 441.843 1233.91 331.485 1314.92 305.023C1336.26 298.056 1354.19 301.467 1496.91 325.898C1685.03 358.106 1722.19 363.905 1760.66 354.231C1789.88 346.879 1831.15 327.782 1854.83 269.246" stroke="#364CA0" stroke-miterlimit="10"/>
<path d="M338.299 654.735C357.05 646.717 386.75 637.761 429.375 638.788C498.38 640.448 540.05 666.812 614.831 680.204C710.951 697.416 703.782 664.892 795.115 674.744C933.897 689.708 994.609 769.583 1104.4 771.056C1178.74 772.055 1158.85 735.541 1250.14 729.231C1350.73 722.285 1392.17 765.424 1488.26 758.369C1571.57 752.249 1567.13 717.868 1657.8 713.37C1715.62 710.507 1771.77 721.801 1808.74 731.233" stroke="#364CA0" stroke-miterlimit="10"/>
<path d="M305.715 1099.76C335.597 1079.39 379.398 1057.14 437.823 1052.04C527.773 1044.2 593.757 1082.13 625.094 1066.96C661.995 1049.08 590.424 986.871 625.094 970.044C664.295 951.014 778.165 1019.68 844.008 998.377C887.856 984.19 903.489 932.342 862.481 898.476C816.191 860.27 710.725 855.612 691.055 871.642C674.201 885.364 706.923 925.163 756.991 931.28C792.037 935.567 823.116 921.832 828.21 919.523C895.508 888.828 850.885 832.229 902.057 812.004C951.774 792.351 1017.85 836.329 1073.48 819.462C1153.39 795.244 1082.15 684.885 1163.15 658.424C1184.49 651.457 1202.42 654.867 1345.14 679.298C1533.26 711.506 1570.42 717.305 1608.89 707.631C1638.11 700.279 1679.38 681.183 1703.06 622.646" stroke="#364CA0" stroke-miterlimit="10"/>
<path d="M-241.027 1098.88C-211.146 1078.51 -167.344 1056.26 -108.919 1051.16C-18.9687 1043.32 47.0151 1081.25 78.3521 1066.08C115.252 1048.2 43.6819 985.992 78.3521 969.165C117.553 950.135 231.422 1018.8 297.265 997.498C341.114 983.311 356.747 931.463 315.739 897.596C269.449 859.39 163.983 854.732 144.312 870.763C127.459 884.485 160.18 924.284 210.249 930.401C245.295 934.688 276.374 920.953 281.468 918.644C348.766 887.949 304.143 831.35 355.315 811.125C405.032 791.471 471.11 835.45 526.742 818.583C606.645 794.364 535.403 684.006 616.41 657.544C637.747 650.577 655.681 653.988 798.4 678.419C986.516 710.627 1023.67 716.426 1062.15 706.752C1091.37 699.4 1132.64 680.304 1156.32 621.767" stroke="#364CA0" stroke-miterlimit="10"/>
<path d="M102.637 1049C132.518 1028.63 176.32 1006.38 234.745 1001.28C324.695 993.439 390.679 1031.37 422.016 1016.2C458.916 998.323 387.346 936.11 422.016 919.283C461.217 900.253 575.086 968.915 640.929 947.616C684.778 933.43 700.411 881.581 659.403 847.715C613.113 809.509 507.647 804.851 487.977 820.882C471.123 834.603 503.845 874.402 553.913 880.52C588.959 884.806 620.038 871.071 625.132 868.762C692.43 838.067 647.807 781.468 698.979 761.244C748.696 741.59 814.774 785.569 870.406 768.702C950.309 744.483 879.067 634.124 960.074 607.663C981.411 600.696 999.345 604.106 1142.06 628.537C1330.18 660.745 1367.34 666.544 1405.81 656.87C1435.04 649.518 1476.3 630.422 1499.99 571.885" fill="#123FA2"/>
<path d="M102.637 1049C132.518 1028.63 176.32 1006.38 234.745 1001.28C324.695 993.439 390.679 1031.37 422.016 1016.2C458.916 998.323 387.346 936.11 422.016 919.283C461.217 900.253 575.086 968.915 640.929 947.616C684.778 933.43 700.411 881.581 659.403 847.715C613.113 809.509 507.647 804.851 487.977 820.882C471.123 834.603 503.845 874.402 553.913 880.52C588.959 884.806 620.038 871.071 625.132 868.762C692.43 838.067 647.807 781.468 698.979 761.244C748.696 741.59 814.774 785.569 870.406 768.702C950.309 744.483 879.067 634.124 960.074 607.663C981.411 600.696 999.345 604.106 1142.06 628.537C1330.18 660.745 1367.34 666.544 1405.81 656.87C1435.04 649.518 1476.3 630.422 1499.99 571.885" stroke="#364CA0" stroke-miterlimit="10"/>
<path d="M645 971.974C674.882 951.604 718.683 929.349 777.108 924.253C867.059 916.41 933.042 954.338 964.379 939.169C1001.28 921.294 929.709 859.081 964.379 842.254C1003.58 823.224 1117.45 891.886 1183.29 870.587C1227.14 856.4 1242.77 804.552 1201.77 770.686C1155.48 732.48 1050.01 727.822 1030.34 743.852C1013.49 757.574 1046.21 797.373 1096.28 803.491C1131.32 807.777 1162.4 794.042 1167.5 791.733C1234.79 761.038 1190.17 704.439 1241.34 684.214C1291.06 664.561 1357.14 708.539 1412.77 691.672C1492.67 667.454 1421.43 557.095 1502.44 530.634C1523.77 523.667 1541.71 527.077 1684.43 551.508C1872.54 583.716 1909.7 589.515 1948.17 579.841C1977.4 572.489 2018.66 553.393 2042.35 494.856" fill="#123FA2"/>
<path d="M645 971.974C674.882 951.604 718.683 929.349 777.108 924.253C867.059 916.41 933.042 954.338 964.379 939.169C1001.28 921.294 929.709 859.081 964.379 842.254C1003.58 823.224 1117.45 891.886 1183.29 870.587C1227.14 856.4 1242.77 804.552 1201.77 770.686C1155.48 732.48 1050.01 727.822 1030.34 743.852C1013.49 757.574 1046.21 797.373 1096.28 803.491C1131.32 807.777 1162.4 794.042 1167.5 791.733C1234.79 761.038 1190.17 704.439 1241.34 684.214C1291.06 664.561 1357.14 708.539 1412.77 691.672C1492.67 667.454 1421.43 557.095 1502.44 530.634C1523.77 523.667 1541.71 527.077 1684.43 551.508C1872.54 583.716 1909.7 589.515 1948.17 579.841C1977.4 572.489 2018.66 553.393 2042.35 494.856" stroke="#364CA0" stroke-miterlimit="10"/>
<path d="M655.887 1136.68C680.949 1120.03 717.686 1101.83 766.688 1097.67C842.131 1091.25 897.472 1122.26 923.755 1109.86C954.704 1095.25 894.677 1044.38 923.755 1030.63C956.633 1015.07 1052.14 1071.2 1107.36 1053.79C1144.14 1042.19 1157.25 999.801 1122.85 972.112C1084.03 940.876 995.575 937.068 979.077 950.174C964.941 961.393 992.386 993.931 1034.38 998.933C1063.77 1002.44 1089.84 991.208 1094.11 989.32C1150.56 964.225 1113.13 917.95 1156.05 901.415C1197.75 885.347 1253.17 921.303 1299.83 907.513C1366.84 887.712 1307.09 797.485 1375.03 775.851C1392.93 770.155 1407.97 772.943 1527.67 792.918C1685.45 819.25 1716.61 823.991 1748.88 816.082C1773.39 810.071 1808 794.458 1827.86 746.6" fill="#123FA2"/>
<path d="M655.887 1136.68C680.949 1120.03 717.686 1101.83 766.688 1097.67C842.131 1091.25 897.472 1122.26 923.755 1109.86C954.704 1095.25 894.677 1044.38 923.755 1030.63C956.633 1015.07 1052.14 1071.2 1107.36 1053.79C1144.14 1042.19 1157.25 999.801 1122.85 972.112C1084.03 940.876 995.575 937.068 979.077 950.174C964.941 961.393 992.386 993.931 1034.38 998.933C1063.77 1002.44 1089.84 991.208 1094.11 989.32C1150.56 964.225 1113.13 917.95 1156.05 901.415C1197.75 885.347 1253.17 921.303 1299.83 907.513C1366.84 887.712 1307.09 797.485 1375.03 775.851C1392.93 770.155 1407.97 772.943 1527.67 792.918C1685.45 819.25 1716.61 823.991 1748.88 816.082C1773.39 810.071 1808 794.458 1827.86 746.6" stroke="#364CA0" stroke-miterlimit="10"/>
</g>
<defs>
<clipPath id="clip0_73_1421">
<rect width="1782" height="1100" fill="white"/>
</clipPath>
</defs>
</svg>
