<svg width="1766" height="1220" viewBox="0 0 1766 1220" fill="none" xmlns="http://www.w3.org/2000/svg">
<path d="M191.665 760.235C209.394 747.393 238.132 731.196 281.802 723.313C352.497 710.548 399.621 730.909 478.261 729.906C579.341 728.615 566.34 694.136 661.25 685.713C805.464 672.907 881.37 748.463 993.646 726.86C1069.67 712.235 1043 676.031 1135.03 649.73C1236.45 620.756 1286.27 659.732 1383.08 631.589C1467.01 607.186 1456.48 570.075 1548.19 545.911C1606.69 530.507 1665.95 531.125 1705.33 533.739" stroke="#364CA0" stroke-miterlimit="10"/>
<path d="M0.999759 511.512C37.6318 499.88 88.4511 490.983 146.935 505.477C236.975 527.794 286.5 590.994 322.573 585.436C365.055 578.877 319.309 487.732 359.236 481.535C404.382 474.523 488.634 587.03 560.428 586.686C608.241 586.455 642.988 536.209 616.104 485.894C585.749 429.122 485.419 388.103 460.313 398.57C438.807 407.524 455.426 461.369 501.579 485.03C533.882 501.597 569.163 497.487 574.967 496.752C651.724 486.832 629.941 410.91 687.127 406.707C742.688 402.619 790.015 472.339 850.248 473.259C936.758 474.588 909.544 331.939 997.97 331.24C1021.26 331.059 1037.33 340.841 1166.24 415.784C1336.15 514.57 1369.93 533.48 1410.83 536.25C1441.9 538.35 1489.07 531.973 1534.15 477.307" stroke="#364CA0" stroke-miterlimit="10"/>
<path d="M194.999 634.905C212.349 622.555 240.579 607.18 283.866 600.635C353.94 590.038 401.321 611.997 479.577 613.476C580.163 615.374 566.422 580.3 660.701 574.832C803.956 566.518 881.267 644.878 992.527 626.71C1067.86 614.41 1040.47 577.169 1131.48 553.638C1231.75 527.716 1282.25 568.475 1377.97 543.243C1460.95 521.364 1449.6 483.721 1540.33 462.328C1598.2 448.691 1657.21 451.186 1696.46 455.06" stroke="#364CA0" stroke-miterlimit="10"/>
<path d="M1765.69 696.569C1729.99 710.811 1679.95 723.348 1620.57 713.108C1529.16 697.339 1475.21 637.873 1439.63 646.016C1397.73 655.621 1449.93 743.231 1410.55 752.29C1366.03 762.537 1273.88 656.395 1202.3 661.913C1154.63 665.59 1123.59 718.21 1154.04 766.457C1188.4 820.893 1291.43 854.574 1315.72 842.324C1336.52 831.843 1316.06 779.336 1268.33 759.063C1234.91 744.868 1200.02 751.51 1194.28 752.662C1118.44 768.088 1145.64 842.242 1088.91 850.556C1033.78 858.639 981.554 792.511 921.411 795.935C835.031 800.845 872.456 941.161 784.31 948.232C761.093 950.091 744.36 941.493 610.383 876.037C433.791 789.755 398.74 773.329 357.744 773.514C326.603 773.658 280.015 783.419 239.001 841.192" stroke="#364CA0" stroke-miterlimit="10"/>
</svg>
